wght100_wdth50.ufo
<glyph name="A" format="2">
	<unicode hex="0041"/>
	<advance width="1402"/>
	<outline>
		<contour>
			<point x="-114.5323486328" y="0" type="line"/>
			<point x="-114.5323486328" y="99.9997558594" type="line"/>
			<point x="67.5821533203" y="134.9997558594" type="line"/>
			<point x="239.5395507812" y="567.3596191406" type="line"/>
			<point x="601.9096679688" y="1508" type="line"/>
			<point x="743.9249267578" y="1508" type="line"/>
			<point x="1110.6086425781" y="595.4029541016" type="line"/>
			<point x="1291.5899658203" y="133.9997558594" type="line"/>
			<point x="1477.2622070312" y="99.9997558594" type="line"/>
			<point x="1477.2622070312" y="0" type="line"/>
			<point x="902.6185913086" y="0" type="line"/>
			<point x="902.6185913086" y="99.9997558594" type="line"/>
			<point x="1097.4350585938" y="133.9997558594" type="line"/>
			<point x="958.162109375" y="535.4766845703" type="line"/>
			<point x="687.5498046875" y="1212.3385009766" type="line"/>
			<point x="657.2574462891" y="1299.5871582031" type="line"/>
			<point x="655.2574462891" y="1299.5871582031" type="line"/>
			<point x="626.6801757812" y="1211.1448974609" type="line"/>
			<point x="356.2772216797" y="529.8063964844" type="line"/>
			<point x="231.2659912109" y="135.9997558594" type="line"/>
			<point x="408.7940063477" y="99.9997558594" type="line"/>
			<point x="408.7940063477" y="0" type="line"/>
		</contour>
		<contour>
			<point x="644.4371948242" y="554.8223876953" type="line"/>
			<point x="1007.9371337891" y="567.3712158203" type="line"/>
			<point x="1056.5170898438" y="442.5294189453" type="line"/>
			<point x="644.4371948242" y="442.5294189453" type="line"/>
		</contour>
		<contour>
			<point x="266.0328369141" y="440.5294189453" type="line"/>
			<point x="307.8671875" y="565.7744140625" type="line"/>
			<point x="646.9102783203" y="554.8223876953" type="line"/>
			<point x="646.9102783203" y="442.5294189453" type="line"/>
		</contour>
	</outline>
	<anchor name="bottom" x="735" y="0"/>
	<anchor name="ogonek" x="1318" y="0"/>
	<anchor name="tonos" x="492" y="1500"/>
	<anchor name="top" x="753" y="1500"/>
</glyph>
<glyph name="D" format="2">
	<unicode hex="0044"/>
	<advance width="1602"/>
	<outline>
		<contour>
			<point x="82.0052490234" y="0" type="line"/>
			<point x="82.0052490234" y="98.9997558594" type="line"/>
			<point x="290.0042724609" y="133.9997558594" type="line"/>
			<point x="293.2833251953" y="754" type="line"/>
			<point x="290.0042724609" y="1361.1602783203" type="line"/>
			<point x="82.0052490234" y="1395.1602783203" type="line"/>
			<point x="82.0052490234" y="1500" type="line"/>
			<point x="734.9412841797" y="1500" type="line" smooth="yes"/>
			<point x="1120.5966796875" y="1500"/>
			<point x="1518.910949707" y="1129"/>
			<point x="1518.910949707" y="777" type="qcurve" smooth="yes"/>
			<point x="1518.910949707" y="410"/>
			<point x="1082.3321533203" y="0"/>
			<point x="766.7386474609" y="0" type="qcurve" smooth="yes"/>
		</contour>
		<contour>
			<point x="469.6423339844" y="131.4545898438" type="line"/>
			<point x="502.1165161133" y="127.0513916016"/>
			<point x="674.6411132812" y="115.4545898438"/>
			<point x="759.4872436523" y="115.4545898438" type="qcurve" smooth="yes"/>
			<point x="1029.5430908203" y="115.4545898438"/>
			<point x="1331.0532836914" y="430.7110595703"/>
			<point x="1334.2380981445" y="771" type="qcurve" smooth="yes"/>
			<point x="1335.5343017578" y="1082.5901489258"/>
			<point x="1013.7377929688" y="1380.5773925781"/>
			<point x="716.9096679688" y="1380.5773925781" type="qcurve" smooth="yes"/>
			<point x="661.0738525391" y="1380.5773925781"/>
			<point x="506.1036987305" y="1372.9805908203"/>
			<point x="469.6423339844" y="1368.5773925781" type="qcurve"/>
			<point x="465.36328125" y="762" type="line"/>
		</contour>
	</outline>
	<anchor name="bottom" x="686" y="0"/>
	<anchor name="center" x="438" y="754"/>
	<anchor name="top" x="686" y="1500"/>
	<anchor name="liga" x="1590" y="0"/>
</glyph>
<glyph name="H" format="2">
	<unicode hex="0048"/>
	<advance width="1741"/>
	<outline>
		<contour>
			<point x="82.0052490234" y="0" type="line"/>
			<point x="82.0052490234" y="99.9997558594" type="line"/>
			<point x="290.0042724609" y="134.9997558594" type="line"/>
			<point x="293.2833251953" y="764" type="line"/>
			<point x="290.0042724609" y="1361.1602783203" type="line"/>
			<point x="82.0052490234" y="1395.1602783203" type="line"/>
			<point x="82.0052490234" y="1500" type="line"/>
			<point x="678.6413574219" y="1500" type="line"/>
			<point x="678.6413574219" y="1395.1602783203" type="line"/>
			<point x="470.6423339844" y="1361.1602783203" type="line"/>
			<point x="467.36328125" y="764" type="line"/>
			<point x="470.6423339844" y="134.9997558594" type="line"/>
			<point x="678.6413574219" y="99.9997558594" type="line"/>
			<point x="678.6413574219" y="0" type="line"/>
		</contour>
		<contour>
			<point x="385.0035400391" y="700.4014892578" type="line"/>
			<point x="385.0035400391" y="833.0017089844" type="line"/>
			<point x="880.9850463867" y="820.2272949219" type="line"/>
			<point x="1361.3208618164" y="833.0017089844" type="line"/>
			<point x="1361.3208618164" y="700.4014892578" type="line"/>
			<point x="880.9850463867" y="700.4014892578" type="line"/>
		</contour>
		<contour>
			<point x="1062.3225708008" y="0" type="line"/>
			<point x="1062.3225708008" y="99.9997558594" type="line"/>
			<point x="1270.3215942383" y="134.9997558594" type="line"/>
			<point x="1273.6006469727" y="764" type="line"/>
			<point x="1270.3215942383" y="1361.1602783203" type="line"/>
			<point x="1062.3225708008" y="1395.1602783203" type="line"/>
			<point x="1062.3225708008" y="1500" type="line"/>
			<point x="1658.9586791992" y="1500" type="line"/>
			<point x="1658.9586791992" y="1395.1602783203" type="line"/>
			<point x="1450.9596557617" y="1361.1602783203" type="line"/>
			<point x="1447.6806030273" y="764" type="line"/>
			<point x="1450.9596557617" y="134.9997558594" type="line"/>
			<point x="1658.9586791992" y="99.9997558594" type="line"/>
			<point x="1658.9586791992" y="0" type="line"/>
		</contour>
	</outline>
	<anchor name="bottom" x="870" y="0"/>
	<anchor name="center" x="870" y="1079"/>
	<anchor name="top" x="870" y="1500"/>
	<anchor name="tonos" x="0" y="1500"/>
	<anchor name="cy_descender" x="1658" y="100"/>
</glyph>
<glyph name="I" format="2">
	<unicode hex="0049"/>
	<advance width="787"/>
	<outline>
		<contour>
			<point x="93.6605224609" y="0" type="line"/>
			<point x="93.6605224609" y="99.9997558594" type="line"/>
			<point x="303.1018066406" y="134.9997558594" type="line"/>
			<point x="306.380859375" y="754" type="line"/>
			<point x="303.1018066406" y="1361.1602783203" type="line"/>
			<point x="93.6605224609" y="1395.1602783203" type="line"/>
			<point x="93.6605224609" y="1500" type="line"/>
			<point x="693.1811523438" y="1500" type="line"/>
			<point x="693.1811523438" y="1395.1602783203" type="line"/>
			<point x="483.7398681641" y="1361.1602783203" type="line"/>
			<point x="480.4608154297" y="754" type="line"/>
			<point x="483.7398681641" y="133.9997558594" type="line"/>
			<point x="693.1811523438" y="99.9997558594" type="line"/>
			<point x="693.1811523438" y="0" type="line"/>
		</contour>
	</outline>
	<anchor name="bottom" x="390" y="0"/>
	<anchor name="ogonek" x="526" y="0"/>
	<anchor name="top" x="390" y="1500"/>
	<anchor name="tonos" x="0" y="1500"/>
	<anchor name="yu_dash" x="380" y="755"/>
	<anchor name="_Yeru_I" x="82" y="0"/>
	<anchor name="liga" x="780" y="0"/>
</glyph>
<glyph name="J" format="2">
	<unicode hex="004A"/>
	<advance width="747"/>
	<outline>
		<contour>
			<point x="-1.0523071289" y="-225.5552978516" type="qcurve"/>
			<point x="-1.0523071289" y="-88.5556030273" type="line"/>
			<point x="16.9600219727" y="-87.0756225586"/>
			<point x="38.6369628906" y="-80.7956542969"/>
			<point x="69.3323974609" y="-79.1156616211" type="qcurve" smooth="yes"/>
			<point x="192.387878418" y="-75.7556762695"/>
			<point x="303.1018066406" y="-7.9154052734"/>
			<point x="303.1018066406" y="125.0845947266" type="qcurve" smooth="yes"/>
			<point x="305.1018066406" y="754" type="line"/>
			<point x="303.1018066406" y="1361.1602783203" type="line"/>
			<point x="77.8239135742" y="1395.1602783203" type="line"/>
			<point x="77.8239135742" y="1500" type="line"/>
			<point x="706.8637695312" y="1500" type="line"/>
			<point x="706.8637695312" y="1399.384765625" type="line"/>
			<point x="480.4608154297" y="1365.384765625" type="line"/>
			<point x="477.1817626953" y="754" type="line"/>
			<point x="484.8560791016" y="140.0845947266" type="line" smooth="yes"/>
			<point x="487.2410888672" y="-36.9154052734"/>
			<point x="294.6543579102" y="-218.5553588867"/>
			<point x="139.2145385742" y="-218.5553588867" type="qcurve" smooth="yes"/>
			<point x="70.1453857422" y="-218.5553588867"/>
			<point x="27.7408447266" y="-223.9553222656"/>
		</contour>
	</outline>
	<anchor name="bottom" x="376" y="-208"/>
	<anchor name="top" x="376" y="1500"/>
	<anchor name="_liga" x="0" y="0"/>
</glyph>
<glyph name="M" format="2">
	<unicode hex="004D"/>
	<advance width="1945"/>
	<outline>
		<contour>
			<point x="83.0052490234" y="0" type="line"/>
			<point x="83.0052490234" y="99.9997558594" type="line"/>
			<point x="279.0042724609" y="134.9997558594" type="line"/>
			<point x="279.0042724609" y="746" type="line"/>
			<point x="279.0042724609" y="1361.1602783203" type="line"/>
			<point x="82.0052490234" y="1395.1602783203" type="line"/>
			<point x="82.0052490234" y="1500" type="line"/>
			<point x="553.9110107422" y="1501.2971191406" type="line"/>
			<point x="762.8330078125" y="809.9132080078" type="line"/>
			<point x="1004" y="370" type="line"/>
			<point x="1046" y="256" type="line"/>
			<point x="1056" y="256" type="line"/>
			<point x="1098" y="370" type="line"/>
			<point x="1152.4626464844" y="802.6739501953" type="line"/>
			<point x="1373.8190917969" y="1500" type="line"/>
			<point x="1862.5532226562" y="1500" type="line"/>
			<point x="1862.5532226562" y="1395.1602783203" type="line"/>
			<point x="1655.5541992188" y="1361.1602783203" type="line"/>
			<point x="1655.3688964844" y="741" type="line"/>
			<point x="1655.5541992188" y="134.9997558594" type="line"/>
			<point x="1862.5532226562" y="99.9997558594" type="line"/>
			<point x="1862.5532226562" y="0" type="line"/>
			<point x="1273.1484375" y="0" type="line"/>
			<point x="1273.7043457031" y="99.9997558594" type="line"/>
			<point x="1481.4742431641" y="134.9997558594" type="line"/>
			<point x="1483.4742431641" y="749" type="line"/>
			<point x="1646" y="1210" type="line"/>
			<point x="1650" y="1329" type="line"/>
			<point x="1640" y="1331" type="line"/>
			<point x="1601" y="1224" type="line"/>
			<point x="1265.6693115234" y="751.6645507812" type="line"/>
			<point x="1003.8061523438" y="-26.8253173828" type="line"/>
			<point x="858.130859375" y="-26.8253173828" type="line"/>
			<point x="617.2416992188" y="735.482421875" type="line"/>
			<point x="458" y="1229" type="line"/>
			<point x="418" y="1336" type="line"/>
			<point x="408" y="1334" type="line"/>
			<point x="413" y="1215" type="line"/>
			<point x="400.2492675781" y="749" type="line"/>
			<point x="403.2492675781" y="134.9997558594" type="line"/>
			<point x="605.6905517578" y="99.9997558594" type="line"/>
			<point x="605.6905517578" y="0" type="line"/>
		</contour>
	</outline>
	<anchor name="bottom" x="1025" y="0"/>
	<anchor name="top" x="1058" y="1500"/>
</glyph>
<glyph name="N" format="2">
	<unicode hex="004E"/>
	<advance width="1586"/>
	<outline>
		<contour>
			<point x="82.0052490234" y="0" type="line"/>
			<point x="82.0052490234" y="99.9997558594" type="line"/>
			<point x="278.0042724609" y="133.9997558594" type="line"/>
			<point x="280.0042724609" y="753" type="line"/>
			<point x="278.0042724609" y="1361.1602783203" type="line"/>
			<point x="82.0052490234" y="1395.1602783203" type="line"/>
			<point x="82.0052490234" y="1500" type="line"/>
			<point x="465.0729980469" y="1500" type="line"/>
			<point x="860.3684082031" y="848.1468505859" type="line"/>
			<point x="1148" y="412" type="line"/>
			<point x="1206" y="310" type="line"/>
			<point x="1215" y="313" type="line"/>
			<point x="1211" y="434" type="line"/>
			<point x="1206.0993652344" y="751" type="line"/>
			<point x="1200.4699707031" y="1361.1602783203" type="line"/>
			<point x="999.5864257812" y="1395.1602783203" type="line"/>
			<point x="999.5864257812" y="1500" type="line"/>
			<point x="1523.7619628906" y="1500" type="line"/>
			<point x="1523.7619628906" y="1395.1602783203" type="line"/>
			<point x="1317.7629394531" y="1361.1602783203" type="line"/>
			<point x="1315.7629394531" y="753" type="line"/>
			<point x="1317.7629394531" y="0" type="line"/>
			<point x="1199.6517333984" y="0" type="line"/>
			<point x="727.0377197266" y="748.9356689453" type="line"/>
			<point x="472" y="1219" type="line"/>
			<point x="414" y="1321" type="line"/>
			<point x="405" y="1318" type="line"/>
			<point x="410" y="1198" type="line"/>
			<point x="390.4908447266" y="755" type="line"/>
			<point x="395.4908447266" y="133.9997558594" type="line"/>
			<point x="608.9321289062" y="99.9997558594" type="line"/>
			<point x="608.9321289062" y="0" type="line"/>
		</contour>
	</outline>
	<anchor name="bottom" x="800" y="0"/>
	<anchor name="top" x="800" y="1500"/>
	<anchor name="engtail" x="1324" y="0"/>
	<anchor name="liga" x="1600" y="0"/>
</glyph>
<glyph name="Q" format="2">
	<unicode hex="0051"/>
	<advance width="1650"/>
	<outline>
		<contour>
			<point x="81.001953125" y="733.4810180664" type="qcurve" smooth="yes"/>
			<point x="81.001953125" y="1073.4075927734"/>
			<point x="507.0057983398" y="1520"/>
			<point x="823.5446777344" y="1520" type="qcurve" smooth="yes"/>
			<point x="1157.552734375" y="1520"/>
			<point x="1569.1265258789" y="1099"/>
			<point x="1569.1265258789" y="754" type="qcurve" smooth="yes"/>
			<point x="1569.1265258789" y="428"/>
			<point x="1144.297668457" y="-11"/>
			<point x="834.6608886719" y="-11" type="qcurve" smooth="yes"/>
			<point x="516.9440307617" y="-11"/>
			<point x="81.001953125" y="409.478515625"/>
		</contour>
		<contour>
			<point x="266.3143310547" y="780.5189819336" type="qcurve" smooth="yes"/>
			<point x="264.3143310547" y="478.0975341797"/>
			<point x="572.3821411133" y="114.8258056641"/>
			<point x="832.8237304688" y="114.2290039062" type="qcurve" smooth="yes"/>
			<point x="1095.4233398438" y="113.6322021484"/>
			<point x="1387.8141479492" y="441.4098510742"/>
			<point x="1385.8141479492" y="751" type="qcurve" smooth="yes"/>
			<point x="1383.8141479492" y="1035.4214477539"/>
			<point x="1093.1594848633" y="1377.6253662109"/>
			<point x="829.665222168" y="1377.6253662109" type="qcurve" smooth="yes"/>
			<point x="558.6620483398" y="1377.6253662109"/>
			<point x="268.3143310547" y="1061.9645385742"/>
		</contour>
		<contour>
			<point x="572.7631835938" y="-57.5462646484" type="qcurve"/>
			<point x="1283.8837280273" y="-215.8054199219" type="line"/>
			<point x="1344.0512695312" y="-203.8649902344"/>
			<point x="1418.3987426758" y="-131.3079833984"/>
			<point x="1450.1991577148" y="-67.2735595703" type="qcurve"/>
			<point x="1535.9432983398" y="-118.7264404297" type="line"/>
			<point x="1502.9909667969" y="-230.7562866211"/>
			<point x="1353.263671875" y="-388.617980957"/>
			<point x="1222.615234375" y="-374.0161132812" type="qcurve"/>
			<point x="522.7302856445" y="-207.3232421875" type="line"/>
			<point x="477.8756103516" y="-225.2272949219"/>
			<point x="364.1545410156" y="-251.3971557617"/>
			<point x="333.4916992188" y="-274.4194335938" type="qcurve"/>
			<point x="263.6676025391" y="-222.3857421875" type="line"/>
			<point x="309.6206054688" y="-103.599609375"/>
			<point x="513.4833374023" y="-36.4965820312"/>
		</contour>
		<contour>
			<point x="531.5192871094" y="-106.0141601562" type="line"/>
			<point x="727.5883178711" y="161.1873779297" type="line"/>
			<point x="818.0924682617" y="100.6607666016" type="line"/>
			<point x="629.4222412109" y="-155.9979248047" type="line"/>
		</contour>
	</outline>
	<anchor name="bottom" x="832" y="0"/>
	<anchor name="top" x="823" y="1502"/>
</glyph>
<glyph name="R" format="2">
	<unicode hex="0052"/>
	<advance width="1432"/>
	<outline>
		<contour>
			<point x="81.3150024414" y="0" type="line"/>
			<point x="81.3150024414" y="98.9997558594" type="line"/>
			<point x="290.3140258789" y="132.9997558594" type="line"/>
			<point x="293.3140258789" y="742" type="line"/>
			<point x="291.3140258789" y="1361.1602783203" type="line"/>
			<point x="82.3150024414" y="1395.1602783203" type="line"/>
			<point x="82.3150024414" y="1500" type="line"/>
			<point x="806.4744873047" y="1500" type="line" smooth="yes"/>
			<point x="1015.8127441406" y="1499"/>
			<point x="1224.2932128906" y="1320"/>
			<point x="1224.2932128906" y="1158" type="qcurve" smooth="yes"/>
			<point x="1224.2932128906" y="976"/>
			<point x="1028.1621704102" y="744.0639648438"/>
			<point x="776.5378417969" y="744.0639648438" type="qcurve" smooth="yes"/>
			<point x="700.0603637695" y="744.0639648438"/>
			<point x="450.3858642578" y="748.451171875"/>
			<point x="372.8923950195" y="753.8383789062" type="qcurve"/>
			<point x="372.8923950195" y="858.1793212891" type="line"/>
			<point x="744.8530883789" y="858.1793212891" type="line" smooth="yes"/>
			<point x="925.4511108398" y="858.1793212891"/>
			<point x="1034.1436767578" y="1000.6145629883"/>
			<point x="1034.1436767578" y="1161" type="qcurve" smooth="yes"/>
			<point x="1034.1436767578" y="1294.5541381836"/>
			<point x="915.2536621094" y="1374.7550048828"/>
			<point x="768.5154418945" y="1374.7550048828" type="qcurve" smooth="yes"/>
			<point x="490.3939819336" y="1374.7550048828" type="line"/>
			<point x="465.3939819336" y="1360.7550048828" type="line"/>
			<point x="463.3939819336" y="766" type="line"/>
			<point x="466.3939819336" y="132.9997558594" type="line"/>
			<point x="677.5468139648" y="99.9997558594" type="line"/>
			<point x="677.5468139648" y="0" type="line"/>
		</contour>
		<contour>
			<point x="614" y="788" type="line"/>
			<point x="802" y="805" type="line"/>
			<point x="1255.6802368164" y="242" type="line" smooth="yes"/>
			<point x="1224" y="173"/>
			<point x="1390.3263549805" y="107.7811279297"/>
			<point x="1466.7878417969" y="103.9997558594" type="qcurve"/>
			<point x="1466.7878417969" y="0" type="line"/>
			<point x="1209.3485107422" y="0" type="line"/>
			<point x="1193.5712890625" y="13" type="line"/>
		</contour>
	</outline>
	<anchor name="bottom" x="803" y="0"/>
	<anchor name="top" x="630" y="1500"/>
</glyph>
<glyph name="S" format="2">
	<unicode hex="0053"/>
	<advance width="1161"/>
	<outline>
		<contour>
			<point x="60.7170410156" y="0" type="line"/>
			<point x="60.7170410156" y="466.7293701172" type="line"/>
			<point x="171.6806640625" y="466.7293701172" type="line"/>
			<point x="194.7719726562" y="291" type="line" smooth="yes"/>
			<point x="195.2391357422" y="262.0354003906"/>
			<point x="406.4240722656" y="110.8258056641"/>
			<point x="587.8229980469" y="110.8258056641" type="qcurve" smooth="yes"/>
			<point x="758.4210205078" y="110.8258056641"/>
			<point x="938.424987793" y="253.0850830078"/>
			<point x="938.424987793" y="384.3380126953" type="qcurve" smooth="yes"/>
			<point x="938.424987793" y="552.2365112305"/>
			<point x="735.0013427734" y="660.4528808594"/>
			<point x="524.8199462891" y="718.7691040039" type="qcurve" smooth="yes"/>
			<point x="332.5213012695" y="770.5307617188"/>
			<point x="112.94921875" y="966.8977050781"/>
			<point x="112.94921875" y="1135.6690673828" type="qcurve" smooth="yes"/>
			<point x="112.94921875" y="1289.7473144531"/>
			<point x="345.6311645508" y="1514"/>
			<point x="534.1810302734" y="1514" type="qcurve" smooth="yes"/>
			<point x="679.0017089844" y="1514"/>
			<point x="851.4182128906" y="1461.9627685547"/>
			<point x="906.3731689453" y="1420.09765625" type="qcurve"/>
			<point x="900.7856445312" y="1499" type="line"/>
			<point x="1005.7314453125" y="1499" type="line"/>
			<point x="1005.7314453125" y="1087.7060546875" type="line"/>
			<point x="896.0042724609" y="1087.7060546875" type="line"/>
			<point x="873.6947021484" y="1267" type="line" smooth="yes"/>
			<point x="868.142578125" y="1319.0189819336"/>
			<point x="683.8471069336" y="1381.8029785156"/>
			<point x="551.9982910156" y="1381.8029785156" type="qcurve" smooth="yes"/>
			<point x="397.3305664062" y="1381.8029785156"/>
			<point x="298.9438476562" y="1289.0158691406"/>
			<point x="298.9438476562" y="1167.4737548828" type="qcurve" smooth="yes"/>
			<point x="298.9438476562" y="1067.0662841797"/>
			<point x="414.4575195312" y="938.0682373047"/>
			<point x="639.8446655273" y="878.0095825195" type="qcurve" smooth="yes"/>
			<point x="892.1666870117" y="801.1547241211"/>
			<point x="1129.1018676758" y="608.0762939453"/>
			<point x="1129.1018676758" y="415.9270019531" type="qcurve" smooth="yes"/>
			<point x="1129.1018676758" y="226.4676513672"/>
			<point x="860.9771118164" y="-15"/>
			<point x="623.0488891602" y="-15" type="qcurve" smooth="yes"/>
			<point x="464.8594360352" y="-15"/>
			<point x="220.7384033203" y="87"/>
			<point x="179.4991455078" y="148" type="qcurve"/>
			<point x="160.7174072266" y="0" type="line"/>
		</contour>
	</outline>
	<anchor name="bottom" x="599" y="0"/>
	<anchor name="top" x="514" y="1500"/>
</glyph>
<glyph name="T" format="2">
	<unicode hex="0054"/>
	<advance width="1363"/>
	<outline>
		<contour>
			<point x="42" y="1052" type="line"/>
			<point x="42" y="1500" type="line"/>
			<point x="1321" y="1500" type="line"/>
			<point x="1321" y="1052" type="line"/>
			<point x="1211" y="1052" type="line"/>
			<point x="1176" y="1382" type="line"/>
			<point x="791" y="1382" type="line"/>
			<point x="772" y="1362" type="line"/>
			<point x="770" y="754" type="line"/>
			<point x="772" y="136" type="line"/>
			<point x="1005" y="100" type="line"/>
			<point x="1005" y="0" type="line"/>
			<point x="358" y="0" type="line"/>
			<point x="358" y="100" type="line"/>
			<point x="592" y="136" type="line"/>
			<point x="594" y="754" type="line"/>
			<point x="592" y="1362" type="line"/>
			<point x="583" y="1382" type="line"/>
			<point x="187" y="1382" type="line"/>
			<point x="152" y="1052" type="line"/>
		</contour>
	</outline>
	<anchor name="bottom" x="644" y="0"/>
	<anchor name="center" x="644" y="750"/>
	<anchor name="top" x="644" y="1500"/>
	<anchor name="cy_descender" x="951" y="100"/>
</glyph>
<glyph name="U" format="2">
	<unicode hex="0055"/>
	<advance width="1576"/>
	<outline>
		<contour>
			<point x="69" y="1395" type="line"/>
			<point x="69" y="1500" type="line"/>
			<point x="656" y="1500" type="line"/>
			<point x="656" y="1395" type="line"/>
			<point x="439" y="1362" type="line"/>
			<point x="439" y="799" type="line"/>
			<point x="443" y="464" type="line" smooth="yes"/>
			<point x="445" y="255"/>
			<point x="612" y="110"/>
			<point x="800" y="110" type="qcurve" smooth="yes"/>
			<point x="983" y="110"/>
			<point x="1199" y="251"/>
			<point x="1201" y="471" type="qcurve" smooth="yes"/>
			<point x="1204" y="791" type="line"/>
			<point x="1198" y="1367" type="line"/>
			<point x="1010" y="1396" type="line"/>
			<point x="1010" y="1500" type="line"/>
			<point x="1518" y="1500" type="line"/>
			<point x="1518" y="1396" type="line"/>
			<point x="1335" y="1367" type="line"/>
			<point x="1331" y="791" type="line"/>
			<point x="1338" y="436" type="line" smooth="yes"/>
			<point x="1343" y="168"/>
			<point x="1050" y="-21"/>
			<point x="800" y="-21" type="qcurve" smooth="yes"/>
			<point x="538" y="-21"/>
			<point x="264" y="175"/>
			<point x="264" y="421" type="qcurve" smooth="yes"/>
			<point x="264" y="799" type="line"/>
			<point x="262" y="1361" type="line"/>
		</contour>
	</outline>
	<anchor name="bottom" x="832" y="0"/>
	<anchor name="ogonek" x="1042" y="0"/>
	<anchor name="top" x="832" y="1500"/>
	<anchor name="topright" x="1590" y="1500"/>
</glyph>
<glyph name="V" format="2">
	<unicode hex="0056"/>
	<advance width="1439"/>
	<outline>
		<contour>
			<point x="-71.2309570312" y="1396.1602783203" type="line"/>
			<point x="-71.2309570312" y="1500" type="line"/>
			<point x="546.8830566406" y="1500" type="line"/>
			<point x="546.8830566406" y="1396.1602783203" type="line"/>
			<point x="322.6530761719" y="1368.1602783203" type="line"/>
			<point x="528.1387329102" y="833.9267578125" type="line"/>
			<point x="733.8956298828" y="238.6221923828" type="line"/>
			<point x="756.6602783203" y="180.3735351562" type="line"/>
			<point x="758.6602783203" y="180.3735351562" type="line"/>
			<point x="780.5164794922" y="239.26171875" type="line"/>
			<point x="962.9996948242" y="774.8635253906" type="line"/>
			<point x="1177.2982177734" y="1357.0440673828" type="line"/>
			<point x="958.3279418945" y="1391.0440673828" type="line"/>
			<point x="958.3279418945" y="1494.8837890625" type="line"/>
			<point x="1516.1981201172" y="1500" type="line"/>
			<point x="1516.1981201172" y="1396.1602783203" type="line"/>
			<point x="1319.5258789062" y="1366.1602783203" type="line"/>
			<point x="1071.2183227539" y="709.3485107422" type="line"/>
			<point x="788.0699462891" y="0" type="line"/>
			<point x="664.6143798828" y="0" type="line"/>
			<point x="371.2216186523" y="767.6867675781" type="line"/>
			<point x="136.9990234375" y="1366.1602783203" type="line"/>
		</contour>
	</outline>
	<anchor name="bottom" x="723" y="0"/>
	<anchor name="top" x="733" y="1500"/>
</glyph>
<glyph name="W" format="2">
	<unicode hex="0057"/>
	<advance width="1916"/>
	<outline>
		<contour>
			<point x="574.8685302734" y="0" type="line"/>
			<point x="330.8671264648" y="774.8272705078" type="line"/>
			<point x="140.9990234375" y="1366.1602783203" type="line"/>
			<point x="-74.2309570312" y="1396.1602783203" type="line"/>
			<point x="-74.2309570312" y="1500" type="line"/>
			<point x="500.6517333984" y="1500" type="line"/>
			<point x="500.6517333984" y="1396.1602783203" type="line"/>
			<point x="328.5372314453" y="1368.1602783203" type="line"/>
			<point x="487.5825805664" y="832.0832519531" type="line"/>
			<point x="634.7586669922" y="286.4631347656" type="line"/>
			<point x="662.2916259766" y="206.6259765625" type="line"/>
			<point x="664.2916259766" y="206.6259765625" type="line"/>
			<point x="689.87890625" y="288.1536865234" type="line"/>
			<point x="775.4769287109" y="639.2799072266" type="line"/>
			<point x="901.5974121094" y="1080.2758789062" type="line"/>
			<point x="811.0092773438" y="1371.6402587891" type="line"/>
			<point x="620.779296875" y="1398.6402587891" type="line"/>
			<point x="620.779296875" y="1500" type="line"/>
			<point x="1205.4483642578" y="1500" type="line"/>
			<point x="1205.4483642578" y="1398.6402587891" type="line"/>
			<point x="1006.2183837891" y="1375.6402587891" type="line"/>
			<point x="1181.8087158203" y="763.0867919922" type="line"/>
			<point x="1292.4932861328" y="306.4791259766" type="line"/>
			<point x="1320.1663818359" y="202.0451660156" type="line"/>
			<point x="1322.1663818359" y="202.0451660156" type="line"/>
			<point x="1348.4073486328" y="307.5301513672" type="line"/>
			<point x="1498.5952758789" y="823.4360351562" type="line"/>
			<point x="1651.0091552734" y="1363.1602783203" type="line"/>
			<point x="1448.5966186523" y="1395.1602783203" type="line"/>
			<point x="1448.5966186523" y="1500" type="line"/>
			<point x="2000.4830322266" y="1500" type="line"/>
			<point x="2000.4830322266" y="1395.1602783203" type="line"/>
			<point x="1810.3685302734" y="1367.1602783203" type="line"/>
			<point x="1615.8424682617" y="773.3552246094" type="line"/>
			<point x="1360.1538085938" y="0" type="line"/>
			<point x="1223.6268310547" y="0" type="line"/>
			<point x="1023.3450927734" y="686.5756835938" type="line"/>
			<point x="972.2177734375" y="904.6491699219" type="line"/>
			<point x="970.2177734375" y="904.6491699219" type="line"/>
			<point x="880.1639404297" y="550.3393554688" type="line"/>
			<point x="714.0817871094" y="0" type="line"/>
		</contour>
	</outline>
	<anchor name="bottom" x="1051" y="0"/>
	<anchor name="top" x="1051" y="1500"/>
</glyph>
<glyph name="X" format="2">
	<unicode hex="0058"/>
	<advance width="1266"/>
	<outline>
		<contour>
			<point x="-49.19921875" y="0" type="line"/>
			<point x="-49.19921875" y="100.9997558594" type="line"/>
			<point x="138.0307617188" y="131.9997558594" type="line"/>
			<point x="587.1881103516" y="779.7145996094" type="line"/>
			<point x="185.7463378906" y="1363.1602783203" type="line"/>
			<point x="-7.0413818359" y="1395.1602783203" type="line"/>
			<point x="-7.0413818359" y="1500" type="line"/>
			<point x="585.4865112305" y="1500" type="line"/>
			<point x="585.4865112305" y="1395.1602783203" type="line"/>
			<point x="381.5354003906" y="1364.1602783203" type="line"/>
			<point x="583.0411376953" y="1066.8491821289" type="line"/>
			<point x="679.5759277344" y="916.5405273438" type="line"/>
			<point x="681.5759277344" y="916.5405273438" type="line"/>
			<point x="774.6181640625" y="1068.498840332" type="line"/>
			<point x="968.6925048828" y="1363.1602783203" type="line"/>
			<point x="782.1644897461" y="1395.1602783203" type="line"/>
			<point x="782.1644897461" y="1500" type="line"/>
			<point x="1314.9169921875" y="1500" type="line"/>
			<point x="1314.9169921875" y="1395.1602783203" type="line"/>
			<point x="1119.2447509766" y="1363.1602783203" type="line"/>
			<point x="741.3015136719" y="802.9932861328" type="line"/>
			<point x="1223.5699462891" y="129.9997558594" type="line"/>
			<point x="1431.7999267578" y="100.9997558594" type="line"/>
			<point x="1431.7999267578" y="0" type="line"/>
			<point x="827.5507202148" y="0" type="line"/>
			<point x="827.5507202148" y="100.9997558594" type="line"/>
			<point x="1025.5018310547" y="129.9997558594" type="line"/>
			<point x="746.9934692383" y="517.2445068359" type="line"/>
			<point x="650.5333251953" y="668.9541015625" type="line"/>
			<point x="648.5333251953" y="668.9541015625" type="line"/>
			<point x="554.5375366211" y="514.3157958984" type="line"/>
			<point x="290.5830078125" y="131.9997558594" type="line"/>
			<point x="475.1110229492" y="100.9997558594" type="line"/>
			<point x="475.1110229492" y="0" type="line"/>
		</contour>
	</outline>
	<anchor name="bottom" x="661" y="0"/>
	<anchor name="top" x="673" y="1500"/>
	<anchor name="cy_descender" x="1386" y="100"/>
	<anchor name="center" x="663" y="811"/>
</glyph>
<glyph name="Y" format="2">
	<unicode hex="0059"/>
	<advance width="1383"/>
	<outline>
		<contour>
			<point x="388.7672119141" y="0" type="line"/>
			<point x="388.7672119141" y="99.9997558594" type="line"/>
			<point x="611.4969482422" y="134.9997558594" type="line"/>
			<point x="612.7760009766" y="615.8371582031" type="line"/>
			<point x="381.3038330078" y="989.9803466797" type="line"/>
			<point x="139.9990234375" y="1360.1602783203" type="line"/>
			<point x="-83.0771484375" y="1395.1602783203" type="line"/>
			<point x="-83.0771484375" y="1500" type="line"/>
			<point x="551.7622680664" y="1500" type="line"/>
			<point x="551.7622680664" y="1395.1602783203" type="line"/>
			<point x="338.1187744141" y="1369.1602783203" type="line"/>
			<point x="521.5711669922" y="1069.9128417969" type="line"/>
			<point x="659" y="783" type="line"/>
			<point x="669" y="783" type="line"/>
			<point x="918.920715332" y="1086.4071044922" type="line"/>
			<point x="1097.6774902344" y="1362.1602783203" type="line"/>
			<point x="894.7072143555" y="1395.1602783203" type="line"/>
			<point x="894.7072143555" y="1500" type="line"/>
			<point x="1450.4060058594" y="1500" type="line"/>
			<point x="1450.4060058594" y="1395.1602783203" type="line"/>
			<point x="1251.1760253906" y="1361.1602783203" type="line"/>
			<point x="1017.3300170898" y="1013.8022460938" type="line"/>
			<point x="790.8132324219" y="663.61328125" type="line"/>
			<point x="791.4954833984" y="134.9997558594" type="line"/>
			<point x="1017.9367675781" y="99.9997558594" type="line"/>
			<point x="1017.9367675781" y="0" type="line"/>
		</contour>
	</outline>
	<anchor name="bottom" x="636" y="0"/>
	<anchor name="top" x="640" y="1500"/>
	<anchor name="tonos" x="-100" y="1500"/>
	<anchor name="center" x="636" y="582"/>
</glyph>
<glyph name="Z" format="2">
	<unicode hex="005A"/>
	<advance width="1184"/>
	<outline>
		<contour>
			<point x="21.3939208984" y="0" type="line"/>
			<point x="-5.3325195312" y="96.7761230469" type="line"/>
			<point x="907.2052001953" y="1382.7550048828" type="line"/>
			<point x="904.2052001953" y="1386.7550048828" type="line"/>
			<point x="225.0651855469" y="1386.7550048828" type="line"/>
			<point x="181.2624511719" y="1142.3208007812" type="line"/>
			<point x="73.1173095703" y="1142.3208007812" type="line"/>
			<point x="73.1173095703" y="1500" type="line"/>
			<point x="1116.9666748047" y="1500" type="line"/>
			<point x="1116.9666748047" y="1396.0462646484" type="line"/>
			<point x="215.3370361328" y="125.2769775391" type="line"/>
			<point x="219.3370361328" y="117.2769775391" type="line"/>
			<point x="998.3461914062" y="117.2769775391" type="line"/>
			<point x="1085.1859130859" y="395.7326660156" type="line"/>
			<point x="1189.6217041016" y="395.7326660156" type="line"/>
			<point x="1128.0393066406" y="0" type="line"/>
		</contour>
	</outline>
	<anchor name="bottom" x="583" y="0"/>
	<anchor name="top" x="583" y="1500"/>
	<anchor name="_liga" x="0" y="0"/>
</glyph>
<glyph name="a" format="2">
	<unicode hex="0061"/>
	<advance width="1107"/>
	<outline>
		<contour>
			<point x="90.5107421875" y="244.0437011719" type="qcurve" smooth="yes"/>
			<point x="90.5107421875" y="390.0655517578"/>
			<point x="451.4293823242" y="613.1298828125"/>
			<point x="814.1015625" y="648.8723754883" type="qcurve"/>
			<point x="814.1015625" y="551.2481689453" type="line"/>
			<point x="553.5424804688" y="522.6909179688"/>
			<point x="272.1864013672" y="337.5186157227"/>
			<point x="272.1864013672" y="235.3192749023" type="qcurve" smooth="yes"/>
			<point x="272.1864013672" y="169.0874633789"/>
			<point x="376.6134643555" y="69.9822387695"/>
			<point x="464.4834594727" y="69.9822387695" type="qcurve" smooth="yes"/>
			<point x="548.9853515625" y="69.9822387695"/>
			<point x="727.964050293" y="162.615234375"/>
			<point x="750.1768798828" y="206.3723754883" type="qcurve"/>
			<point x="751.38671875" y="778.3612060547" type="line" smooth="yes"/>
			<point x="751.9916381836" y="860.1171875"/>
			<point x="635.6580200195" y="911.6857910156"/>
			<point x="538.6909790039" y="911.6857910156" type="qcurve" smooth="yes"/>
			<point x="444.2946777344" y="911.6857910156"/>
			<point x="334.1325683594" y="884.6126098633"/>
			<point x="326.5217285156" y="872.1431274414" type="qcurve"/>
			<point x="313.8118286133" y="862.5263671875"/>
			<point x="359.5233154297" y="824.514831543"/>
			<point x="360.621887207" y="780.465637207" type="qcurve" smooth="yes"/>
			<point x="362.7716674805" y="737.9229736328"/>
			<point x="308.5319824219" y="687.3065185547"/>
			<point x="266.7548828125" y="687.3065185547" type="qcurve" smooth="yes"/>
			<point x="220.9531860352" y="687.3065185547"/>
			<point x="154.6741333008" y="746.3180541992"/>
			<point x="154.6741333008" y="824.3541870117" type="qcurve" smooth="yes"/>
			<point x="154.6741333008" y="907.9837036133"/>
			<point x="368.2115478516" y="1024.3165283203"/>
			<point x="555.3334960938" y="1024.3165283203" type="qcurve" smooth="yes"/>
			<point x="730.5468139648" y="1024.3165283203"/>
			<point x="913.3590698242" y="899.4769897461"/>
			<point x="914.3590698242" y="800.8319091797" type="qcurve" smooth="yes"/>
			<point x="918.3590698242" y="107" type="line"/>
			<point x="1058.3080444336" y="80" type="line"/>
			<point x="1058.3080444336" y="0" type="line"/>
			<point x="818.9163208008" y="0" type="line"/>
			<point x="783.0654296875" y="35.0115356445" type="line"/>
			<point x="749.4136962891" y="96.9994506836" type="line"/>
			<point x="708.6430664062" y="48.2291870117"/>
			<point x="503.6845092773" y="-15"/>
			<point x="385.9037475586" y="-15" type="qcurve" smooth="yes"/>
			<point x="265.2915039062" y="-15"/>
			<point x="90.5107421875" y="124.6604614258"/>
		</contour>
	</outline>
	<anchor name="bottom" x="548" y="0"/>
	<anchor name="ogonek" x="878" y="0"/>
	<anchor name="top" x="514" y="1000"/>
</glyph>
<glyph name="b" format="2">
	<unicode hex="0062"/>
	<advance width="1229"/>
	<outline>
		<contour>
			<point x="194.5518798828" y="0" type="line"/>
			<point x="206.2059936523" y="527" type="line"/>
			<point x="199.5518798828" y="1384.8981933594" type="line"/>
			<point x="17.9539794922" y="1409.8981933594" type="line"/>
			<point x="17.9539794922" y="1507.8981933594" type="line"/>
			<point x="330.3143920898" y="1533.9965820312" type="line"/>
			<point x="339.3143920898" y="1528.9965820312" type="line"/>
			<point x="365.573425293" y="1507.9965820312" type="line"/>
			<point x="356.3635864258" y="878.3570556641" type="line"/>
			<point x="410.5100708008" y="929.7968139648"/>
			<point x="611.3295898438" y="1023.3165283203"/>
			<point x="735.4718017578" y="1023.3165283203" type="qcurve" smooth="yes"/>
			<point x="936.2161865234" y="1023.3165283203"/>
			<point x="1163.5662231445" y="785.6774291992"/>
			<point x="1163.5662231445" y="533.3181762695" type="qcurve" smooth="yes"/>
			<point x="1163.5662231445" y="275.8389892578"/>
			<point x="905.8038330078" y="-8"/>
			<point x="693.7043457031" y="-12" type="qcurve" smooth="yes"/>
			<point x="585.4299316406" y="-14"/>
			<point x="409.8837280273" y="33.7670288086"/>
			<point x="351.123840332" y="75.3400268555" type="qcurve"/>
			<point x="297.4961547852" y="0" type="line"/>
		</contour>
		<contour>
			<point x="352.3143920898" y="424.7584838867" type="line"/>
			<point x="357.3143920898" y="186.9837036133" type="line"/>
			<point x="374.8876342773" y="142.9065551758"/>
			<point x="564.9158935547" y="88.9454956055"/>
			<point x="658.3793334961" y="88.9454956055" type="qcurve" smooth="yes"/>
			<point x="790.5541381836" y="88.9454956055"/>
			<point x="980.4954833984" y="303.3900756836"/>
			<point x="980.4954833984" y="504.1582641602" type="qcurve" smooth="yes"/>
			<point x="980.4954833984" y="700.631652832"/>
			<point x="818.1176147461" y="906.7598876953"/>
			<point x="701.3251342773" y="906.7598876953" type="qcurve" smooth="yes"/>
			<point x="600.5005493164" y="906.7598876953"/>
			<point x="396.6320800781" y="800.6290283203"/>
			<point x="352.3143920898" y="756.3217163086" type="qcurve"/>
		</contour>
	</outline>
	<anchor name="bottom" x="571" y="0"/>
	<anchor name="top" x="571" y="1533"/>
</glyph>
<glyph name="c" format="2">
	<unicode hex="0063"/>
	<advance width="974"/>
	<outline>
		<contour>
			<point x="63.9975585938" y="466.1931762695" type="qcurve" smooth="yes"/>
			<point x="63.9975585938" y="736.3981323242"/>
			<point x="306.513671875" y="1024.9967041016"/>
			<point x="531.026184082" y="1024.9967041016" type="qcurve" smooth="yes"/>
			<point x="642.1416015625" y="1024.9967041016"/>
			<point x="781.390625" y="977.5521240234"/>
			<point x="818.4434814453" y="942.2557373047" type="qcurve"/>
			<point x="837.0061035156" y="1010.4071044922" type="line"/>
			<point x="914.2951049805" y="1010.4071044922" type="line"/>
			<point x="929.2951049805" y="703.1759033203" type="line"/>
			<point x="845.3887939453" y="703.1759033203" type="line"/>
			<point x="826.7520751953" y="765.9967041016" type="line" smooth="yes"/>
			<point x="814.2645874023" y="838.4774169922"/>
			<point x="673.3150634766" y="917.0512084961"/>
			<point x="562.5110473633" y="917.0512084961" type="qcurve" smooth="yes"/>
			<point x="409.5274047852" y="917.0512084961"/>
			<point x="239.4387817383" y="710.8830566406"/>
			<point x="240.4387817383" y="482.9983520508" type="qcurve" smooth="yes"/>
			<point x="241.4387817383" y="295.4084472656"/>
			<point x="428.0884399414" y="91.8156738281"/>
			<point x="591.9837036133" y="91.8156738281" type="qcurve" smooth="yes"/>
			<point x="693.4111938477" y="91.8156738281"/>
			<point x="871.3311157227" y="152.6301269531"/>
			<point x="920.7686157227" y="206" type="qcurve"/>
			<point x="967.5980224609" y="154.610534668" type="line"/>
			<point x="919.455871582" y="76.8885498047"/>
			<point x="687.7842407227" y="-17"/>
			<point x="525.0560913086" y="-17" type="qcurve" smooth="yes"/>
			<point x="329.7028198242" y="-17"/>
			<point x="63.9975585938" y="239.5942993164"/>
		</contour>
	</outline>
	<anchor name="bottom" x="563" y="0"/>
	<anchor name="top" x="534" y="1000"/>
</glyph>
<glyph name="d" format="2">
	<unicode hex="0064"/>
	<advance width="1207"/>
	<outline>
		<contour>
			<point x="64.4418945312" y="491.8088378906" type="qcurve" smooth="yes"/>
			<point x="64.4418945312" y="727.8001098633"/>
			<point x="343.0322875977" y="1026.3165283203"/>
			<point x="578.7138061523" y="1026.3165283203" type="qcurve" smooth="yes"/>
			<point x="670.5723266602" y="1026.3165283203"/>
			<point x="840.266784668" y="964.4439086914"/>
			<point x="861.7574462891" y="941.7968139648" type="qcurve"/>
			<point x="857.4136352539" y="1396.9965820312" type="line"/>
			<point x="675.8157348633" y="1421.9965820312" type="line"/>
			<point x="675.8157348633" y="1519.9965820312" type="line"/>
			<point x="985.9298095703" y="1533.9965820312" type="line"/>
			<point x="1004.0036010742" y="1528.9965820312" type="line"/>
			<point x="1028.7315063477" y="1507.9965820312" type="line"/>
			<point x="1023.7069091797" y="537.6852416992" type="line"/>
			<point x="1031.151184082" y="107" type="line"/>
			<point x="1172.3433227539" y="80" type="line"/>
			<point x="1172.3433227539" y="0" type="line"/>
			<point x="899.7478027344" y="0" type="line"/>
			<point x="877.4925537109" y="13" type="line"/>
			<point x="861.7811889648" y="96.9594726562" type="line"/>
			<point x="820.7671508789" y="52.9885253906"/>
			<point x="627.65625" y="-11"/>
			<point x="539.7266235352" y="-11" type="qcurve" smooth="yes"/>
			<point x="320.4176635742" y="-11"/>
			<point x="64.4418945312" y="245.1120605469"/>
		</contour>
		<contour>
			<point x="245.5126342773" y="505.1582641602" type="qcurve" smooth="yes"/>
			<point x="245.5126342773" y="324.6255493164"/>
			<point x="402.0994873047" y="112.538269043"/>
			<point x="548.0389404297" y="112.0012207031" type="qcurve" smooth="yes"/>
			<point x="637.6871948242" y="111.4641723633"/>
			<point x="810.1622314453" y="159.801574707"/>
			<point x="860.9443969727" y="204.3095703125" type="qcurve"/>
			<point x="863.1559448242" y="538.2382202148" type="line"/>
			<point x="861.1559448242" y="794.6665649414" type="line"/>
			<point x="834.9257202148" y="848.0637207031"/>
			<point x="676.571105957" y="915.1487426758"/>
			<point x="596.3514404297" y="915.1487426758" type="qcurve" smooth="yes"/>
			<point x="449.4561767578" y="915.1487426758"/>
			<point x="245.5126342773" y="699.0444946289"/>
		</contour>
	</outline>
	<anchor name="bottom" x="604" y="0"/>
	<anchor name="center" x="876" y="1202"/>
	<anchor name="top" x="604" y="1534"/>
	<anchor name="topright" x="961" y="1000"/>
	<anchor name="liga" x="1207" y="0"/>
</glyph>
<glyph name="e" format="2">
	<unicode hex="0065"/>
	<advance width="1017"/>
	<outline>
		<contour>
			<point x="63.8864746094" y="488.7000732422" type="qcurve" smooth="yes"/>
			<point x="63.8864746094" y="732.9978027344"/>
			<point x="338.9351196289" y="1024.9167480469"/>
			<point x="569.4921264648" y="1024.9167480469" type="qcurve" smooth="yes"/>
			<point x="766.9777832031" y="1024.9167480469"/>
			<point x="994.2796020508" y="791.7973632812"/>
			<point x="1011.2080078125" y="601.4538574219" type="qcurve"/>
			<point x="1011.2080078125" y="545.9719238281" type="line"/>
			<point x="166" y="528" type="line"/>
			<point x="166" y="624" type="line"/>
			<point x="846.0012207031" y="637.102355957" type="line"/>
			<point x="834.9914550781" y="747.8959960938"/>
			<point x="675.0050048828" y="912.0637207031"/>
			<point x="548.6678466797" y="912.0637207031" type="qcurve" smooth="yes"/>
			<point x="405.6544189453" y="912.0637207031"/>
			<point x="241.6054077148" y="706.0363769531"/>
			<point x="242.1424560547" y="523.7984619141" type="qcurve" smooth="yes"/>
			<point x="242.6795043945" y="313.5608520508"/>
			<point x="443.8065795898" y="77.5009155273"/>
			<point x="584.8641967773" y="77.5009155273" type="qcurve" smooth="yes"/>
			<point x="731.9575195312" y="77.5009155273"/>
			<point x="883.6097412109" y="162.5560302734"/>
			<point x="920.8167114258" y="206.981628418" type="qcurve"/>
			<point x="980.9097900391" y="157.5921630859" type="line"/>
			<point x="939.4443359375" y="90.2590332031"/>
			<point x="725.9605712891" y="-17"/>
			<point x="573.1655273438" y="-17" type="qcurve" smooth="yes"/>
			<point x="342.9211425781" y="-17"/>
			<point x="63.8864746094" y="253.9204101562"/>
		</contour>
	</outline>
	<anchor name="bottom" x="578" y="0"/>
	<anchor name="ogonek" x="744" y="0"/>
	<anchor name="top" x="539" y="1000"/>
</glyph>
<glyph name="g" format="2">
	<unicode hex="0067"/>
	<advance width="1050"/>
	<outline>
		<contour>
			<point x="28.4630126953" y="-257.1450805664" type="qcurve" smooth="yes"/>
			<point x="28.4630126953" y="-163.151550293"/>
			<point x="126" y="-51"/>
			<point x="233" y="2" type="qcurve"/>
			<point x="340" y="-21" type="line"/>
			<point x="240" y="-84"/>
			<point x="164.448425293" y="-195.8854980469"/>
			<point x="164.448425293" y="-246.8427734375" type="qcurve" smooth="yes"/>
			<point x="164.448425293" y="-335.9090576172"/>
			<point x="338.3827514648" y="-411.8138427734"/>
			<point x="548.3510742188" y="-411.8138427734" type="qcurve" smooth="yes"/>
			<point x="741.6793823242" y="-411.8138427734"/>
			<point x="970.7177734375" y="-332.6002197266"/>
			<point x="970.7177734375" y="-237.6002197266" type="qcurve" smooth="yes"/>
			<point x="970.7177734375" y="-143.2004394531"/>
			<point x="783.1003417969" y="-95.963684082"/>
			<point x="528.0386962891" y="-83.8411865234" type="qcurve" smooth="yes"/>
			<point x="307.8325195312" y="-72.9025268555"/>
			<point x="98.8568725586" y="23.5666503906"/>
			<point x="98.8568725586" y="118.7889404297" type="qcurve" smooth="yes"/>
			<point x="98.8568725586" y="205.6260986328"/>
			<point x="238.6572875977" y="310.4477539062"/>
			<point x="334.4377441406" y="350.5529785156" type="qcurve"/>
			<point x="380.9946289062" y="292.0952758789" type="line"/>
			<point x="306.0375976562" y="258.0302734375"/>
			<point x="223.2750244141" y="191.3825073242"/>
			<point x="223.2750244141" y="137.6045532227" type="qcurve" smooth="yes"/>
			<point x="223.2750244141" y="111.1975097656"/>
			<point x="359.0270385742" y="79.8499145508"/>
			<point x="577.0515136719" y="72.8721313477" type="qcurve" smooth="yes"/>
			<point x="829.6226806641" y="67.6231079102"/>
			<point x="1078.111328125" y="-24.6990966797"/>
			<point x="1078.111328125" y="-172.5147094727" type="qcurve" smooth="yes"/>
			<point x="1078.111328125" y="-312.2427978516"/>
			<point x="823.9432373047" y="-510"/>
			<point x="526.7911376953" y="-510" type="qcurve" smooth="yes"/>
			<point x="281.2232666016" y="-510"/>
			<point x="28.4630126953" y="-374.8147583008"/>
		</contour>
		<contour>
			<point x="102.0615234375" y="645.6068725586" type="qcurve" smooth="yes"/>
			<point x="102.0615234375" y="799.6123046875"/>
			<point x="349.6497802734" y="1024.9167480469"/>
			<point x="535.963684082" y="1024.9167480469" type="qcurve" smooth="yes"/>
			<point x="720.4628295898" y="1024.9167480469"/>
			<point x="973.3393554688" y="818.6123046875"/>
			<point x="973.3393554688" y="659.4862060547" type="qcurve" smooth="yes"/>
			<point x="974.3393554688" y="529.5791625977"/>
			<point x="728.573059082" y="231.9134521484"/>
			<point x="542.0192260742" y="231.9134521484" type="qcurve" smooth="yes"/>
			<point x="355.4963378906" y="231.9134521484"/>
			<point x="102.0615234375" y="507.1840820312"/>
		</contour>
		<contour>
			<point x="280.502746582" y="653.7968139648" type="qcurve" smooth="yes"/>
			<point x="280.502746582" y="529.3824462891"/>
			<point x="412.7622680664" y="334.9330444336"/>
			<point x="539.864074707" y="334.9330444336" type="qcurve" smooth="yes"/>
			<point x="662.4365844727" y="334.9330444336"/>
			<point x="794.688293457" y="533.3824462891"/>
			<point x="794.688293457" y="653.7968139648" type="qcurve" smooth="yes"/>
			<point x="794.688293457" y="773.2111816406"/>
			<point x="664.9561157227" y="911.4525756836"/>
			<point x="536.854309082" y="911.4525756836" type="qcurve" smooth="yes"/>
			<point x="414.4729614258" y="911.4525756836"/>
			<point x="280.502746582" y="771.2111816406"/>
		</contour>
		<contour>
			<point x="540" y="925" type="line"/>
			<point x="540" y="1000" type="line"/>
			<point x="1059.2788085938" y="996.9167480469" type="line"/>
			<point x="1059.2788085938" y="872.4899291992" type="line"/>
		</contour>
	</outline>
	<anchor name="bottom" x="524" y="-416"/>
	<anchor name="top" x="484" y="1000"/>
</glyph>
<glyph name="h" format="2">
	<unicode hex="0068"/>
	<advance width="1262"/>
	<outline>
		<contour>
			<point x="68.6234130859" y="0" type="line"/>
			<point x="68.6234130859" y="80" type="line"/>
			<point x="214.4910888672" y="107" type="line"/>
			<point x="216.4910888672" y="533.3565063477" type="line"/>
			<point x="214.4910888672" y="1396.9965820312" type="line"/>
			<point x="60.4910888672" y="1421.9965820312" type="line"/>
			<point x="60.4910888672" y="1519.9965820312" type="line"/>
			<point x="337.8831176758" y="1533.9965820312" type="line"/>
			<point x="365.8831176758" y="1528.9965820312" type="line"/>
			<point x="372.8831176758" y="1507.9965820312" type="line"/>
			<point x="372.8831176758" y="833.3156738281" type="line"/>
			<point x="432.3939208984" y="908.6865844727"/>
			<point x="594.0402832031" y="1022.9967041016"/>
			<point x="723.6878662109" y="1022.9967041016" type="qcurve" smooth="yes"/>
			<point x="874.0653686523" y="1022.9967041016"/>
			<point x="1024.5548706055" y="887.5468139648"/>
			<point x="1024.5548706055" y="803.9967041016" type="qcurve" smooth="yes"/>
			<point x="1024.5548706055" y="763.4604492188"/>
			<point x="1014.1097412109" y="620.7130126953"/>
			<point x="1014.1097412109" y="620.7130126953" type="qcurve"/>
			<point x="1029.5548706055" y="107" type="line"/>
			<point x="1169.557800293" y="80" type="line"/>
			<point x="1169.557800293" y="0" type="line"/>
			<point x="726.0825805664" y="0" type="line"/>
			<point x="726.0825805664" y="80" type="line"/>
			<point x="861.9776000977" y="107" type="line"/>
			<point x="861.9776000977" y="568.3565063477" type="line"/>
			<point x="861.9776000977" y="689.5894775391" type="line" smooth="yes"/>
			<point x="861.9776000977" y="771.3170776367"/>
			<point x="762.7789916992" y="892.9095458984"/>
			<point x="661.2142944336" y="892.9095458984" type="qcurve" smooth="yes"/>
			<point x="580.140625" y="892.9095458984"/>
			<point x="432.4263916016" y="787.9067993164"/>
			<point x="378.8831176758" y="700.1168212891" type="qcurve"/>
			<point x="376.8831176758" y="568.3165283203" type="line"/>
			<point x="382.8831176758" y="107" type="line"/>
			<point x="527.9939575195" y="80" type="line"/>
			<point x="527.9939575195" y="0" type="line"/>
		</contour>
	</outline>
	<anchor name="bottom" x="629" y="0"/>
	<anchor name="center" x="347" y="1202"/>
	<anchor name="top" x="304" y="1534"/>
</glyph>
<glyph name="l" format="2">
	<unicode hex="006C"/>
	<advance width="619"/>
	<outline>
		<contour>
			<point x="77.9007568359" y="0" type="line"/>
			<point x="77.9007568359" y="83" type="line"/>
			<point x="236.5526123047" y="107" type="line"/>
			<point x="240.7624511719" y="527" type="line"/>
			<point x="237.5526123047" y="1384.8981933594" type="line"/>
			<point x="38.3597412109" y="1409.8981933594" type="line"/>
			<point x="38.3597412109" y="1507.8981933594" type="line"/>
			<point x="337.7478637695" y="1533.9965820312" type="line"/>
			<point x="377.2413330078" y="1528.9965820312" type="line"/>
			<point x="400.1544799805" y="1507.9965820312" type="line"/>
			<point x="400.9446411133" y="527" type="line"/>
			<point x="406.1544799805" y="107" type="line"/>
			<point x="567.0494995117" y="83" type="line"/>
			<point x="567.0494995117" y="0" type="line"/>
		</contour>
	</outline>
	<anchor name="bottom" x="316" y="0"/>
	<anchor name="center" x="316" y="750"/>
	<anchor name="top" x="316" y="1534"/>
	<anchor name="topright" x="367" y="1000"/>
	<anchor name="centerright" x="746" y="680"/>
	<anchor name="yu_dash" x="321" y="500"/>
	<anchor name="liga" x="632" y="0"/>
</glyph>
<glyph name="m" format="2">
	<unicode hex="006D"/>
	<advance width="1919"/>
	<outline>
		<contour>
			<point x="75.3250732422" y="0" type="line"/>
			<point x="75.3250732422" y="80" type="line"/>
			<point x="223.3280029297" y="107" type="line"/>
			<point x="226.5378417969" y="533.3565063477" type="line"/>
			<point x="223.3280029297" y="870.9167480469" type="line"/>
			<point x="61.3250732422" y="890.9167480469" type="line"/>
			<point x="61.3250732422" y="991.9167480469" type="line"/>
			<point x="330.4675292969" y="1005.9167480469" type="line"/>
			<point x="362.2698364258" y="982.8675537109" type="line"/>
			<point x="381.9298706055" y="844.8921508789" type="line"/>
			<point x="438.3068237305" y="920.4970703125"/>
			<point x="637.2700805664" y="1021.9167480469"/>
			<point x="750.2602539062" y="1021.9167480469" type="qcurve" smooth="yes"/>
			<point x="867.8856811523" y="1021.9167480469"/>
			<point x="1025.9794921875" y="928.0527954102"/>
			<point x="1042.8408813477" y="845.2380371094" type="qcurve"/>
			<point x="1090.2648925781" y="921.4970703125"/>
			<point x="1298.6386108398" y="1021.9167480469"/>
			<point x="1413.8591918945" y="1021.9167480469" type="qcurve" smooth="yes"/>
			<point x="1568.9000244141" y="1021.9167480469"/>
			<point x="1726.4611816406" y="900.9167480469"/>
			<point x="1726.4611816406" y="766.9167480469" type="qcurve" smooth="yes"/>
			<point x="1726.4611816406" y="721.0366821289"/>
			<point x="1725.4765625" y="591.3165283203"/>
			<point x="1725.4365844727" y="568.3565063477" type="qcurve" smooth="yes"/>
			<point x="1731.4611816406" y="107" type="line"/>
			<point x="1871.4641113281" y="80" type="line"/>
			<point x="1871.4641113281" y="0" type="line"/>
			<point x="1422.1741333008" y="0" type="line"/>
			<point x="1422.1741333008" y="80" type="line"/>
			<point x="1564.069152832" y="107" type="line"/>
			<point x="1566.3530883789" y="572.3565063477" type="line"/>
			<point x="1565.7211914062" y="698.1876220703" type="line" smooth="yes"/>
			<point x="1565.2684326172" y="804.1876220703"/>
			<point x="1456.5974731445" y="882.1876220703"/>
			<point x="1360.4916381836" y="882.1876220703" type="qcurve" smooth="yes"/>
			<point x="1262.3776245117" y="882.1876220703"/>
			<point x="1096.8119506836" y="797.3569335938"/>
			<point x="1053.8978271484" y="715.7053833008" type="qcurve"/>
			<point x="1051.3836669922" y="694.3075561523"/>
			<point x="1051.9680786133" y="658.3165283203"/>
			<point x="1051.9680786133" y="568.3565063477" type="qcurve" smooth="yes"/>
			<point x="1057.5297241211" y="107" type="line"/>
			<point x="1196.5326538086" y="80" type="line"/>
			<point x="1196.5326538086" y="0" type="line"/>
			<point x="758.2426757812" y="0" type="line"/>
			<point x="758.2426757812" y="80" type="line"/>
			<point x="893.1376953125" y="107" type="line"/>
			<point x="894.3475341797" y="566.3565063477" type="line"/>
			<point x="892.3475341797" y="698.1876220703" type="line" smooth="yes"/>
			<point x="891.3475341797" y="804.1876220703"/>
			<point x="793.2609863281" y="882.1876220703"/>
			<point x="698.5191650391" y="882.1876220703" type="qcurve" smooth="yes"/>
			<point x="607.7876586914" y="882.1876220703"/>
			<point x="432.2185668945" y="782.6207275391"/>
			<point x="385.1151123047" y="702.3274536133" type="qcurve"/>
			<point x="384.5101928711" y="526.3565063477" type="line"/>
			<point x="392.7200317383" y="107" type="line"/>
			<point x="530.830871582" y="80" type="line"/>
			<point x="530.830871582" y="0" type="line"/>
		</contour>
	</outline>
	<anchor name="bottom" x="958" y="0"/>
	<anchor name="top" x="958" y="1000"/>
</glyph>
<glyph name="n" format="2">
	<unicode hex="006E"/>
	<advance width="1235"/>
	<outline>
		<contour>
			<point x="76" y="0" type="line"/>
			<point x="76" y="80" type="line"/>
			<point x="224" y="115" type="line"/>
			<point x="227" y="533" type="line"/>
			<point x="224" y="852" type="line"/>
			<point x="61" y="879" type="line"/>
			<point x="61" y="976" type="line"/>
			<point x="333" y="1006" type="line"/>
			<point x="362" y="989" type="line"/>
			<point x="381" y="835" type="line"/>
			<point x="419" y="908"/>
			<point x="622" y="1022"/>
			<point x="747" y="1022" type="qcurve" smooth="yes"/>
			<point x="887" y="1022"/>
			<point x="1042" y="901"/>
			<point x="1042" y="767" type="qcurve" smooth="yes"/>
			<point x="1042" y="707"/>
			<point x="1041" y="568"/>
			<point x="1041" y="557" type="qcurve" smooth="yes"/>
			<point x="1047" y="115" type="line"/>
			<point x="1187" y="80" type="line"/>
			<point x="1187" y="0" type="line"/>
			<point x="741" y="0" type="line"/>
			<point x="741" y="80" type="line"/>
			<point x="879" y="115" type="line"/>
			<point x="880" y="568" type="line"/>
			<point x="878" y="723" type="line" smooth="yes"/>
			<point x="877" y="818"/>
			<point x="777" y="894"/>
			<point x="677" y="894" type="qcurve" smooth="yes"/>
			<point x="590" y="894"/>
			<point x="423" y="783"/>
			<point x="386" y="700" type="qcurve"/>
			<point x="385" y="568" type="line"/>
			<point x="394" y="115" type="line"/>
			<point x="539" y="80" type="line"/>
			<point x="539" y="0" type="line"/>
		</contour>
	</outline>
	<anchor name="bottom" x="632" y="0"/>
	<anchor name="top" x="632" y="1000"/>
	<anchor name="liga" x="1264" y="0"/>
</glyph>
<glyph name="q" format="2">
	<unicode hex="0071"/>
	<advance width="1119"/>
	<outline>
		<contour>
			<point x="65.3305664062" y="493.9983520508" type="qcurve" smooth="yes"/>
			<point x="65.3305664062" y="754.4775390625"/>
			<point x="334.3982543945" y="1026.3165283203"/>
			<point x="518.169921875" y="1026.3165283203" type="qcurve" smooth="yes"/>
			<point x="616.2704467773" y="1026.3165283203"/>
			<point x="761.938293457" y="958.9967041016"/>
			<point x="784.321105957" y="917.7968139648" type="qcurve"/>
			<point x="818.321105957" y="1017.3165283203" type="line"/>
			<point x="1123.7141113281" y="992.3165283203" type="line"/>
			<point x="1123.7141113281" y="896.8165283203" type="line"/>
			<point x="945.5219726562" y="879.8165283203" type="line"/>
			<point x="943.5219726562" y="437.678527832" type="line"/>
			<point x="948.5219726562" y="-373" type="line"/>
			<point x="1106.2817382812" y="-400" type="line"/>
			<point x="1106.2817382812" y="-480" type="line"/>
			<point x="601.8164672852" y="-480" type="line"/>
			<point x="601.8164672852" y="-400" type="line"/>
			<point x="786.549621582" y="-373" type="line"/>
			<point x="786.549621582" y="94.8395385742" type="line"/>
			<point x="750.8111572266" y="50.4797363281"/>
			<point x="599.9568481445" y="-11"/>
			<point x="473.6718139648" y="-11" type="qcurve" smooth="yes"/>
			<point x="307.1990356445" y="-11"/>
			<point x="65.3305664062" y="246.5991210938"/>
		</contour>
		<contour>
			<point x="237.932434082" y="508.1582641602" type="qcurve" smooth="yes"/>
			<point x="237.932434082" y="316.272644043"/>
			<point x="391.6504516602" y="110.4641723633"/>
			<point x="523.487121582" y="110.4641723633" type="qcurve" smooth="yes"/>
			<point x="609.625793457" y="110.4641723633"/>
			<point x="743.321105957" y="156.700012207"/>
			<point x="781.549621582" y="201.5043945312" type="qcurve"/>
			<point x="781.549621582" y="811.6173095703" type="line"/>
			<point x="753.321105957" y="859.1994018555"/>
			<point x="633.526184082" y="920.5192260742"/>
			<point x="550.442199707" y="920.5192260742" type="qcurve" smooth="yes"/>
			<point x="419.1790161133" y="920.5192260742"/>
			<point x="237.932434082" y="687.0444946289"/>
		</contour>
	</outline>
	<anchor name="bottom" x="594" y="0"/>
	<anchor name="top" x="594" y="1000"/>
</glyph>
<glyph name="r" format="2">
	<unicode hex="0072"/>
	<advance width="834"/>
	<outline>
		<contour>
			<point x="76.9985351562" y="0" type="line"/>
			<point x="76.9985351562" y="80" type="line"/>
			<point x="225.0014648438" y="107" type="line"/>
			<point x="228.2113037109" y="532.9167480469" type="line"/>
			<point x="225.0014648438" y="852.7691650391" type="line"/>
			<point x="62.9985351562" y="890.9167480469" type="line"/>
			<point x="62.9985351562" y="991.9167480469" type="line"/>
			<point x="340.4803466797" y="1005.9167480469" type="line"/>
			<point x="375.3051147461" y="988.9167480469" type="line"/>
			<point x="385.6033325195" y="834.7875366211" type="line"/>
			<point x="438.2061767578" y="907.9167480469"/>
			<point x="616.0599365234" y="1016.8767700195"/>
			<point x="747.2977905273" y="1016.9167480469" type="qcurve" smooth="yes"/>
			<point x="814.01171875" y="1016.9167480469" type="line"/>
			<point x="814.01171875" y="770.7457275391" type="line"/>
			<point x="706.0129394531" y="770.7457275391" type="line"/>
			<point x="673.6424560547" y="910.9528808594" type="line"/>
			<point x="597.9990844727" y="905.5823974609"/>
			<point x="440.5349121094" y="789.8787841797"/>
			<point x="390.6033325195" y="701.0453491211" type="qcurve"/>
			<point x="388.6033325195" y="567.9167480469" type="line"/>
			<point x="394.6033325195" y="107" type="line"/>
			<point x="566.4983520508" y="80" type="line"/>
			<point x="566.4983520508" y="0" type="line"/>
		</contour>
	</outline>
	<anchor name="bottom" x="432" y="0"/>
	<anchor name="top" x="486" y="1000"/>
</glyph>
<glyph name="s" format="2">
	<unicode hex="0073"/>
	<advance width="983"/>
	<outline>
		<contour>
			<point x="84.2210378665" y="10.5895996094" type="line"/>
			<point x="84.2210378665" y="298.8208007812" type="line"/>
			<point x="182.7568655032" y="298.8208007812" type="line"/>
			<point x="191.6457204836" y="274" type="line" smooth="yes"/>
			<point x="210.5324378142" y="159.8891601562"/>
			<point x="366.0282874236" y="103.8530273438"/>
			<point x="501.6564612517" y="103.8530273438" type="qcurve" smooth="yes"/>
			<point x="615.2090125213" y="102.8530273438"/>
			<point x="766.9552283416" y="222.6395263672"/>
			<point x="766.6915564666" y="292.3532714844" type="qcurve" smooth="yes"/>
			<point x="766.4278845916" y="363.1931762695"/>
			<point x="622.2596106658" y="413.7130126953"/>
			<point x="438.8623328338" y="457.8442993164" type="qcurve" smooth="yes"/>
			<point x="251.8955359588" y="500.6150512695"/>
			<point x="98.7898230681" y="638.5103759766"/>
			<point x="99.3130788821" y="745.0939331055" type="qcurve" smooth="yes"/>
			<point x="99.8445105681" y="858.7912597656"/>
			<point x="298.1632971892" y="1020.9167480469"/>
			<point x="472.2823767791" y="1020.9167480469" type="qcurve" smooth="yes"/>
			<point x="582.2298865447" y="1020.9167480469"/>
			<point x="710.8617224822" y="965.3364257812"/>
			<point x="744.2417884002" y="929.1265869141" type="qcurve"/>
			<point x="764.1306433806" y="995.3271484375" type="line"/>
			<point x="844.3703894744" y="995.3271484375" type="line"/>
			<point x="844.3703894744" y="746.0959472656" type="line"/>
			<point x="743.760465158" y="746.0959472656" type="line"/>
			<point x="732.8389563689" y="783.9167480469" type="line" smooth="yes"/>
			<point x="725.3945593963" y="857.8052978516"/>
			<point x="584.0465979705" y="911.6748657227"/>
			<point x="487.7937293181" y="911.6748657227" type="qcurve" smooth="yes"/>
			<point x="400.1874060759" y="911.6748657227"/>
			<point x="256.2293982634" y="837.0227050781"/>
			<point x="256.2293982634" y="781.2406616211" type="qcurve" smooth="yes"/>
			<point x="256.2293982634" y="707.1691894531"/>
			<point x="368.2012624758" y="637.8991699219"/>
			<point x="533.0636281985" y="608.5028076172" type="qcurve" smooth="yes"/>
			<point x="674.0074758547" y="589.3791503906"/>
			<point x="927.5605139861" y="444.4548339844"/>
			<point x="927.5605139861" y="280.3655395508" type="qcurve" smooth="yes"/>
			<point x="927.5605139861" y="143.8319091797"/>
			<point x="693.6888709197" y="-11"/>
			<point x="535.8962683806" y="-11" type="qcurve" smooth="yes"/>
			<point x="401.687833322" y="-11"/>
			<point x="232.0382361541" y="49.2098388672"/>
			<point x="197.522429468" y="87.7901611328" type="qcurve"/>
			<point x="157.8558645266" y="10.5895996094" type="line"/>
		</contour>
	</outline>
	<anchor name="bottom" x="468" y="0"/>
	<anchor name="top" x="416" y="1000"/>
</glyph>
<glyph name="t" format="2">
	<unicode hex="0074"/>
	<advance width="626"/>
	<outline>
		<contour>
			<point x="29.0615234375" y="903.0616455078" type="line"/>
			<point x="29.0615234375" y="976.1363525391" type="line"/>
			<point x="102.0615234375" y="985.1363525391"/>
			<point x="231.8550415039" y="1072.1971435547"/>
			<point x="268.2014160156" y="1208" type="qcurve"/>
			<point x="293.2014160156" y="1208" type="line"/>
			<point x="313.2014160156" y="1183" type="line"/>
			<point x="308.2014160156" y="1004.0071411133" type="line"/>
			<point x="587.1408081055" y="1004.0071411133" type="line"/>
			<point x="587.1408081055" y="896.2098388672" type="line"/>
			<point x="347.1015014648" y="896.2098388672" type="line"/>
			<point x="345.1015014648" y="531.8773193359" type="line"/>
			<point x="348.1015014648" y="199.2045288086" type="line" smooth="yes"/>
			<point x="348.1015014648" y="147.2045288086"/>
			<point x="389.1015014648" y="106.2045288086"/>
			<point x="458.1408081055" y="106.2045288086" type="qcurve" smooth="yes"/>
			<point x="593.1408081055" y="106.2045288086" type="line"/>
			<point x="593.1408081055" y="23" type="line"/>
			<point x="271.2897949219" y="-8" type="line"/>
			<point x="221.2897949219" y="-5"/>
			<point x="180.2897949219" y="50"/>
			<point x="181.2897949219" y="109" type="qcurve" smooth="yes"/>
			<point x="186.2897949219" y="531.8773193359" type="line"/>
			<point x="186.2897949219" y="892.0616455078" type="line"/>
		</contour>
	</outline>
	<anchor name="bottom" x="322" y="0"/>
	<anchor name="center" x="312" y="622"/>
	<anchor name="top" x="322" y="1179"/>
	<anchor name="topright" x="540" y="1000"/>
</glyph>
<glyph name="u" format="2">
	<unicode hex="0075"/>
	<advance width="1221"/>
	<outline>
		<contour>
			<point x="46.2023925781" y="890.5169677734" type="line"/>
			<point x="46.2023925781" y="991.5169677734" type="line"/>
			<point x="343.7825927734" y="1005.5169677734" type="line"/>
			<point x="366.7825927734" y="999.5169677734" type="line"/>
			<point x="370.7825927734" y="973.5169677734" type="line"/>
			<point x="368.7825927734" y="472.2004394531" type="line"/>
			<point x="371.7825927734" y="316.3900756836" type="line" smooth="yes"/>
			<point x="373.7825927734" y="198.3900756836"/>
			<point x="479.3237915039" y="114.3900756836"/>
			<point x="568.1091308594" y="114.3900756836" type="qcurve" smooth="yes"/>
			<point x="659.6208496094" y="114.3900756836"/>
			<point x="812.9080810547" y="199.3900756836"/>
			<point x="861.1363525391" y="289.3900756836" type="qcurve"/>
			<point x="861.1363525391" y="472.2004394531" type="line"/>
			<point x="859.1363525391" y="873.5169677734" type="line"/>
			<point x="715.0255126953" y="893.5169677734" type="line"/>
			<point x="715.0255126953" y="991.5169677734" type="line"/>
			<point x="999.5283813477" y="1005.5169677734" type="line"/>
			<point x="1019.5283813477" y="999.5169677734" type="line"/>
			<point x="1023.5283813477" y="972.5169677734" type="line"/>
			<point x="1023.5283813477" y="472.2004394531" type="line"/>
			<point x="1026.5283813477" y="108" type="line"/>
			<point x="1192.5313110352" y="92" type="line"/>
			<point x="1192.5313110352" y="11" type="line"/>
			<point x="899.1363525391" y="-4" type="line"/>
			<point x="880.1363525391" y="18" type="line"/>
			<point x="866.1363525391" y="159" type="line"/>
			<point x="817.9104614258" y="89"/>
			<point x="615.7943725586" y="-8"/>
			<point x="502.4517822266" y="-8" type="qcurve" smooth="yes"/>
			<point x="359.8695068359" y="-8"/>
			<point x="207.2053222656" y="126.1193847656"/>
			<point x="207.2053222656" y="226" type="qcurve" smooth="yes"/>
			<point x="207.2053222656" y="291.7201538086"/>
			<point x="209.1653442383" y="452.2803955078"/>
			<point x="209.2053222656" y="472.2004394531" type="qcurve" smooth="yes"/>
			<point x="207.2053222656" y="870.5169677734" type="line"/>
		</contour>
	</outline>
	<anchor name="bottom" x="622" y="0"/>
	<anchor name="ogonek" x="1030" y="20"/>
	<anchor name="top" x="622" y="1000"/>
	<anchor name="topright" x="1005" y="1000"/>
	<anchor name="cy_descender" x="1178" y="80"/>
</glyph>
<glyph name="v" format="2">
	<unicode hex="0076"/>
	<advance width="972"/>
	<outline>
		<contour>
			<point x="-21.4422607422" y="911.9167480469" type="line"/>
			<point x="-21.4422607422" y="1005.9167480469" type="line"/>
			<point x="399.270690918" y="1005.9167480469" type="line"/>
			<point x="399.270690918" y="911.9167480469" type="line"/>
			<point x="268.7821655273" y="883.9167480469" type="line"/>
			<point x="391.5142822266" y="530.5522460938" type="line"/>
			<point x="486" y="301" type="line"/>
			<point x="523" y="187" type="line"/>
			<point x="533" y="187" type="line"/>
			<point x="570" y="301" type="line"/>
			<point x="636.5369873047" y="533.2755737305" type="line"/>
			<point x="772.2135009766" y="883.9167480469" type="line"/>
			<point x="629.9681396484" y="911.9167480469" type="line"/>
			<point x="629.9681396484" y="1005.9167480469" type="line"/>
			<point x="1012.5354003906" y="1005.9167480469" type="line"/>
			<point x="1012.5354003906" y="911.9167480469" type="line"/>
			<point x="888.3166503906" y="883.9167480469" type="line"/>
			<point x="730.8064575195" y="488.5649414062" type="line"/>
			<point x="543.9212646484" y="0" type="line"/>
			<point x="438.6954956055" y="0" type="line"/>
			<point x="263.4105834961" y="472.6539306641" type="line"/>
			<point x="108.1002197266" y="882.9167480469" type="line"/>
		</contour>
	</outline>
	<anchor name="bottom" x="513" y="0"/>
	<anchor name="top" x="513" y="1000"/>
</glyph>
<glyph name="w" format="2">
	<unicode hex="0077"/>
	<advance width="1501"/>
	<outline>
		<contour>
			<point x="418.9598388672" y="0" type="line"/>
			<point x="250.375793457" y="496.4863891602" type="line"/>
			<point x="101.3592529297" y="882.9167480469" type="line"/>
			<point x="-27.1832275391" y="910.9167480469" type="line"/>
			<point x="-27.1832275391" y="1005.9167480469" type="line"/>
			<point x="417.5163574219" y="1005.9167480469" type="line"/>
			<point x="417.5163574219" y="910.9167480469" type="line"/>
			<point x="282.0278320312" y="883.9167480469" type="line"/>
			<point x="384.3251342773" y="538.5596313477" type="line"/>
			<point x="483" y="294" type="line"/>
			<point x="521" y="180" type="line"/>
			<point x="531" y="180" type="line"/>
			<point x="568" y="294" type="line"/>
			<point x="576.5957641602" y="431.8969116211" type="line"/>
			<point x="725" y="747" type="line"/>
			<point x="638.5293579102" y="882.9167480469" type="line"/>
			<point x="511.8789672852" y="910.9167480469" type="line"/>
			<point x="511.8789672852" y="1005.9167480469" type="line"/>
			<point x="939.6446533203" y="1005.9167480469" type="line"/>
			<point x="939.6446533203" y="910.9167480469" type="line"/>
			<point x="803.1561279297" y="884.9167480469" type="line"/>
			<point x="941.6287231445" y="451.0505981445" type="line"/>
			<point x="1045" y="294" type="line"/>
			<point x="1082" y="180" type="line"/>
			<point x="1092" y="180" type="line"/>
			<point x="1128" y="294" type="line"/>
			<point x="1145.4891357422" y="533.8678588867" type="line"/>
			<point x="1261.1419067383" y="883.9167480469" type="line"/>
			<point x="1124.8965454102" y="910.9167480469" type="line"/>
			<point x="1124.8965454102" y="1005.9167480469" type="line"/>
			<point x="1518.3759765625" y="1005.9167480469" type="line"/>
			<point x="1518.3759765625" y="910.9167480469" type="line"/>
			<point x="1396.1572265625" y="883.9167480469" type="line"/>
			<point x="1308" y="496" type="line"/>
			<point x="1071.5794677734" y="0" type="line"/>
			<point x="967.2937011719" y="0" type="line"/>
			<point x="830" y="480" type="line"/>
			<point x="790" y="595" type="line"/>
			<point x="780" y="595" type="line"/>
			<point x="741" y="480" type="line"/>
			<point x="535.0725097656" y="0" type="line"/>
		</contour>
	</outline>
	<anchor name="bottom" x="787" y="0"/>
	<anchor name="top" x="787" y="1000"/>
</glyph>
<glyph name="x" format="2">
	<unicode hex="0078"/>
	<advance width="944"/>
	<outline>
		<contour>
			<point x="-6.0111083984" y="0" type="line"/>
			<point x="-6.0111083984" y="80" type="line"/>
			<point x="137.4234619141" y="103" type="line"/>
			<point x="444" y="480" type="line"/>
			<point x="117.5896606445" y="888.9167480469" type="line"/>
			<point x="-4.0607299805" y="910.9167480469" type="line"/>
			<point x="-4.0607299805" y="1005.9167480469" type="line"/>
			<point x="413.0223999023" y="1005.9167480469" type="line"/>
			<point x="413.0223999023" y="910.9167480469" type="line"/>
			<point x="285.4259643555" y="891.9167480469" type="line"/>
			<point x="454" y="701" type="line"/>
			<point x="527" y="602" type="line"/>
			<point x="537" y="602" type="line"/>
			<point x="603" y="701" type="line"/>
			<point x="642.502746582" y="888.9167480469" type="line"/>
			<point x="517.2573852539" y="910.9167480469" type="line"/>
			<point x="517.2573852539" y="1005.9167480469" type="line"/>
			<point x="884.2503662109" y="1005.9167480469" type="line"/>
			<point x="884.2503662109" y="910.9167480469" type="line"/>
			<point x="767.7078857422" y="888.9167480469" type="line"/>
			<point x="594" y="524" type="line"/>
			<point x="799.5580444336" y="107" type="line"/>
			<point x="950.2897338867" y="80" type="line"/>
			<point x="950.2897338867" y="0" type="line"/>
			<point x="502.1253051758" y="0" type="line"/>
			<point x="502.1253051758" y="80" type="line"/>
			<point x="633.7217407227" y="102" type="line"/>
			<point x="584" y="305" type="line"/>
			<point x="511" y="402" type="line"/>
			<point x="501" y="402" type="line"/>
			<point x="439" y="305" type="line"/>
			<point x="262.6286010742" y="103" type="line"/>
			<point x="421.9818725586" y="80" type="line"/>
			<point x="421.9818725586" y="0" type="line"/>
		</contour>
	</outline>
	<anchor name="bottom" x="522" y="0"/>
	<anchor name="top" x="522" y="1000"/>
	<anchor name="cy_descender" x="1043" y="80"/>
</glyph>
<glyph name="y" format="2">
	<unicode hex="0079"/>
	<advance width="856"/>
	<outline>
		<contour>
			<point x="-51.0098266602" y="910.9167480469" type="line"/>
			<point x="-51.0098266602" y="1005.9167480469" type="line"/>
			<point x="381.1971435547" y="1005.9167480469" type="line"/>
			<point x="381.1971435547" y="910.9167480469" type="line"/>
			<point x="252.7086181641" y="888.9167480469" type="line"/>
			<point x="397.1065673828" y="500.0897216797" type="line"/>
			<point x="500.4902954102" y="245.0689697266" type="line"/>
			<point x="539.670715332" y="125.724609375" type="line"/>
			<point x="541.670715332" y="125.724609375" type="line"/>
			<point x="578.5403442383" y="246.3038330078" type="line"/>
			<point x="658.59765625" y="500.5077514648" type="line"/>
			<point x="798.7221679688" y="884.9167480469" type="line"/>
			<point x="659.4768066406" y="910.9167480469" type="line"/>
			<point x="659.4768066406" y="1005.9167480469" type="line"/>
			<point x="1052.3588867188" y="1005.9167480469" type="line"/>
			<point x="1052.3588867188" y="910.9167480469" type="line"/>
			<point x="928.1401367188" y="884.9167480469" type="line"/>
			<point x="759.9782714844" y="444.0981445312" type="line"/>
			<point x="508.8957519531" y="-185.6687011719" type="line" smooth="yes"/>
			<point x="444.5779418945" y="-371.0621948242"/>
			<point x="287.0803222656" y="-488"/>
			<point x="202.5440673828" y="-488" type="qcurve"/>
			<point x="51.4867553711" y="-449.9626464844" type="line"/>
			<point x="51.4867553711" y="-357.461730957" type="line"/>
			<point x="147.1824951172" y="-350.461730957" type="line" smooth="yes"/>
			<point x="216.4915161133" y="-339.461730957"/>
			<point x="362.2017211914" y="-283.4072265625"/>
			<point x="395.7164916992" y="-201.2602539062" type="qcurve" smooth="yes"/>
			<point x="458.6090087891" y="16.0363769531" type="line"/>
			<point x="470.4240722656" y="16.0363769531" type="line"/>
			<point x="258.470703125" y="445.9518432617" type="line"/>
			<point x="78.5326538086" y="887.9167480469" type="line"/>
		</contour>
	</outline>
	<anchor name="bottom" x="782" y="0"/>
	<anchor name="top" x="524" y="1000"/>
</glyph>
<glyph name="z" format="2">
	<unicode hex="007A"/>
	<advance width="894"/>
	<outline>
		<contour>
			<point x="53.5428466797" y="0" type="line"/>
			<point x="53.5428466797" y="97.9638671875" type="line"/>
			<point x="603.5584716797" y="888.3784790039" type="line"/>
			<point x="207.0775146484" y="888.3784790039" type="line"/>
			<point x="180.8184814453" y="777.685546875" type="line"/>
			<point x="88.8197021484" y="777.685546875" type="line"/>
			<point x="88.8197021484" y="1005.9167480469" type="line"/>
			<point x="812.3698120117" y="1005.9167480469" type="line"/>
			<point x="812.3698120117" y="913.2492675781" type="line"/>
			<point x="260.3629150391" y="116.538269043" type="line"/>
			<point x="712.8151245117" y="116.538269043" type="line"/>
			<point x="739.0741577148" y="227.2312011719" type="line"/>
			<point x="830.0729370117" y="227.2312011719" type="line"/>
			<point x="830.0729370117" y="0" type="line"/>
		</contour>
	</outline>
	<anchor name="bottom" x="443" y="0"/>
	<anchor name="top" x="443" y="1000"/>
	<anchor name="_liga" x="0" y="0"/>
</glyph>
